<svg width="25" height="40" viewBox="0 0 25 40" fill="none" xmlns="http://www.w3.org/2000/svg">
<path opacity="0.5" d="M23.6458 32.1773C23.6458 32.1773 15.7545 30.0741 8.5939 31.2889L7.4939 26.0863C7.4939 26.0863 17.1793 25.5062 22.798 26.8842L23.6458 32.1773Z" fill="#FEFEFE" fill-opacity="0.24"/>
<path opacity="0.5" d="M24.9356 22.3702C24.9356 22.3702 14.6273 19.6237 5.26667 21.2101L3.83252 14.4024C3.83252 14.4024 16.4853 13.6412 23.8263 15.4454L24.9349 22.3702H24.9356Z" fill="#FEFEFE" fill-opacity="0.24"/>
<path d="M5.11281 11.5567L21.3639 18.9617C24.1416 20.3942 24.9356 22.3702 24.9356 22.3702L24.9082 20.5746L24.8723 17.8921L24.863 17.5384C24.8083 14.1486 22.798 11.0945 19.7049 9.73456L4.77945 3.14622C0.80256 1.22336 0 0 0 0L0.0179567 1.04224L0.0452811 2.91826L0.0538685 3.79811C0.0767205 5.43747 0.564203 7.03671 1.45969 8.41007C2.35519 9.78344 3.62193 10.8746 5.11281 11.5567V11.5567Z" fill="#7147F3"/>
<path d="M7.89988 23.5849L20.8134 29.4667C23.0228 30.6089 23.6552 32.1773 23.6552 32.1773L23.6365 30.7541L23.6005 28.6236V28.3425C23.5832 27.0258 23.1883 25.7417 22.4625 24.6428C21.7368 23.544 20.7108 22.6766 19.5066 22.1438L7.64771 16.9131C4.48197 15.3907 3.8418 14.4117 3.8418 14.4117L3.85038 15.2455L3.86912 16.732L3.87771 17.4299C3.89573 18.7315 4.28343 20.0012 4.99557 21.0908C5.70772 22.1804 6.71498 23.0452 7.89988 23.5842V23.5849Z" fill="#7147F3"/>
<path d="M10.5692 33.2384L20.3092 37.8695C21.9775 38.7673 22.446 40 22.446 40L22.428 38.8758L22.4015 37.1989V36.9725C22.3648 34.8513 21.1656 32.9479 19.3083 32.0962L10.3701 27.9804C7.98035 26.7835 7.50256 26.013 7.50256 26.013L7.51115 26.6656L7.52911 27.8351L7.53848 28.3793C7.56502 30.4817 8.747 32.3765 10.5684 33.2376L10.5692 33.2384Z" fill="#7147F3"/>
</svg>
