<svg width="16" height="16" viewBox="0 0 16 16" fill="none" xmlns="http://www.w3.org/2000/svg">
<path d="M8 16C12.4183 16 16 12.4183 16 8C16 3.58172 12.4183 0 8 0C3.58172 0 0 3.58172 0 8C0 12.4183 3.58172 16 8 16Z" fill="#6DA544"/>
<path d="M8.00004 3.13043L14.6087 7.99999L8.00004 12.8696L1.39136 7.99999L8.00004 3.13043Z" fill="#FFDA44"/>
<path d="M8 10.7826C9.53679 10.7826 10.7826 9.53679 10.7826 8C10.7826 6.46322 9.53679 5.21741 8 5.21741C6.46322 5.21741 5.21741 6.46322 5.21741 8C5.21741 9.53679 6.46322 10.7826 8 10.7826Z" fill="#F0F0F0"/>
<path d="M6.60867 7.82611C6.12479 7.82611 5.65782 7.8997 5.21826 8.03627C5.23773 9.55627 6.47536 10.7826 7.99998 10.7826C8.94273 10.7826 9.77536 10.3134 10.2787 9.59614C9.41754 8.51811 8.09251 7.82611 6.60867 7.82611Z" fill="#0052B4"/>
<path d="M10.7311 8.53313C10.7646 8.3605 10.7826 8.18241 10.7826 8C10.7826 6.46319 9.53684 5.21741 8.00006 5.21741C6.85337 5.21741 5.86899 5.91119 5.44299 6.90175C5.81956 6.82372 6.20943 6.78263 6.60877 6.78263C8.22493 6.78259 9.68699 7.45441 10.7311 8.53313Z" fill="#0052B4"/>
</svg>
