<svg width="88" height="88" viewBox="0 0 88 88" fill="none" xmlns="http://www.w3.org/2000/svg">
<ellipse cx="29.4385" cy="60.0021" rx="16.8388" ry="16.8388" transform="rotate(-21.0468 29.4385 60.0021)" fill="url(#paint0_linear_9_850)" fill-opacity="0.8"/>
<g filter="url(#filter0_b_9_850)">
<path fill-rule="evenodd" clip-rule="evenodd" d="M63.6768 56.8209L71.5345 53.7973C74.4287 52.6836 75.8709 49.4373 74.7572 46.543L61.6546 12.493C60.5409 9.59875 57.2947 8.15659 54.4004 9.2703L12.4927 25.3965C9.59843 26.5102 8.15627 29.7564 9.26998 32.6507L22.3725 66.7007C23.4862 69.595 26.7325 71.0371 29.6267 69.9234L53.1998 60.8525" fill="url(#paint1_linear_9_850)" fill-opacity="0.8"/>
<path d="M63.6768 56.8209L71.5345 53.7973C74.4287 52.6836 75.8709 49.4373 74.7572 46.543L61.6546 12.493C60.5409 9.59875 57.2947 8.15659 54.4004 9.2703L12.4927 25.3965C9.59843 26.5102 8.15627 29.7564 9.26998 32.6507L22.3725 66.7007C23.4862 69.595 26.7325 71.0371 29.6267 69.9234L53.1998 60.8525" stroke="url(#paint2_radial_9_850)" stroke-opacity="0.8" stroke-width="1.5" stroke-linecap="round"/>
</g>
<g filter="url(#filter1_b_9_850)">
<path fill-rule="evenodd" clip-rule="evenodd" d="M29.1165 29.5243L44.8319 23.477L29.1165 29.5243Z" fill="url(#paint3_linear_9_850)" fill-opacity="0.8"/>
<path d="M29.1165 29.5243L44.8319 23.477" stroke="url(#paint4_radial_9_850)" stroke-opacity="0.8" stroke-width="1.5" stroke-linecap="round"/>
</g>
<g filter="url(#filter2_b_9_850)">
<path fill-rule="evenodd" clip-rule="evenodd" d="M56.2172 29.6205L24.7864 41.7151L56.2172 29.6205Z" fill="url(#paint5_linear_9_850)" fill-opacity="0.8"/>
<path d="M56.2172 29.6205L24.7864 41.7151" stroke="url(#paint6_radial_9_850)" stroke-opacity="0.8" stroke-width="1.5" stroke-linecap="round"/>
</g>
<g filter="url(#filter3_b_9_850)">
<path fill-rule="evenodd" clip-rule="evenodd" d="M30.3297 56.1211L38.1874 53.0975L30.3297 56.1211Z" fill="url(#paint7_linear_9_850)" fill-opacity="0.8"/>
<path d="M30.3297 56.1211L38.1874 53.0975" stroke="url(#paint8_radial_9_850)" stroke-opacity="0.8" stroke-width="1.5" stroke-linecap="round"/>
</g>
<path d="M57.8249 40.6655C62.0743 42.5533 63.9888 47.5285 62.101 51.7779C60.2132 56.0273 55.238 57.9418 50.9885 56.054C46.7391 54.1662 44.8246 49.191 46.7125 44.9416C48.6003 40.6921 53.5755 38.7777 57.8249 40.6655" stroke="white" stroke-opacity="0.8" stroke-width="1.5" stroke-linecap="round" stroke-linejoin="round"/>
<path d="M61.8838 52.1612L66.7005 64.6785L60.4541 64.0751L56.2235 68.7101L51.4069 56.1927" stroke="white" stroke-opacity="0.8" stroke-width="1.5" stroke-linecap="round" stroke-linejoin="round"/>
<defs>
<filter id="filter0_b_9_850" x="-0.856506" y="-0.856201" width="85.7401" height="80.9061" filterUnits="userSpaceOnUse" color-interpolation-filters="sRGB">
<feFlood flood-opacity="0" result="BackgroundImageFix"/>
<feGaussianBlur in="BackgroundImageFix" stdDeviation="4.5"/>
<feComposite in2="SourceAlpha" operator="in" result="effect1_backgroundBlur_9_850"/>
<feBlend mode="normal" in="SourceGraphic" in2="effect1_backgroundBlur_9_850" result="shape"/>
</filter>
<filter id="filter1_b_9_850" x="19.3663" y="13.7268" width="35.2158" height="25.5477" filterUnits="userSpaceOnUse" color-interpolation-filters="sRGB">
<feFlood flood-opacity="0" result="BackgroundImageFix"/>
<feGaussianBlur in="BackgroundImageFix" stdDeviation="4.5"/>
<feComposite in2="SourceAlpha" operator="in" result="effect1_backgroundBlur_9_850"/>
<feBlend mode="normal" in="SourceGraphic" in2="effect1_backgroundBlur_9_850" result="shape"/>
</filter>
<filter id="filter2_b_9_850" x="15.0361" y="19.8703" width="50.9312" height="31.595" filterUnits="userSpaceOnUse" color-interpolation-filters="sRGB">
<feFlood flood-opacity="0" result="BackgroundImageFix"/>
<feGaussianBlur in="BackgroundImageFix" stdDeviation="4.5"/>
<feComposite in2="SourceAlpha" operator="in" result="effect1_backgroundBlur_9_850"/>
<feBlend mode="normal" in="SourceGraphic" in2="effect1_backgroundBlur_9_850" result="shape"/>
</filter>
<filter id="filter3_b_9_850" x="20.5795" y="43.3473" width="27.3581" height="22.524" filterUnits="userSpaceOnUse" color-interpolation-filters="sRGB">
<feFlood flood-opacity="0" result="BackgroundImageFix"/>
<feGaussianBlur in="BackgroundImageFix" stdDeviation="4.5"/>
<feComposite in2="SourceAlpha" operator="in" result="effect1_backgroundBlur_9_850"/>
<feBlend mode="normal" in="SourceGraphic" in2="effect1_backgroundBlur_9_850" result="shape"/>
</filter>
<linearGradient id="paint0_linear_9_850" x1="46.2772" y1="68.4214" x2="-2.55515" y2="87.786" gradientUnits="userSpaceOnUse">
<stop stop-color="#41B5D9" stop-opacity="0"/>
<stop offset="1" stop-color="#41B5D9"/>
</linearGradient>
<linearGradient id="paint1_linear_9_850" x1="-62.2645" y1="3.04297" x2="17.5878" y2="100.35" gradientUnits="userSpaceOnUse">
<stop stop-color="white" stop-opacity="0.4"/>
<stop offset="1" stop-color="white" stop-opacity="0"/>
</linearGradient>
<radialGradient id="paint2_radial_9_850" cx="0" cy="0" r="1" gradientUnits="userSpaceOnUse" gradientTransform="translate(42.0136 39.5969) rotate(68.9532) scale(23.8549 21.828)">
<stop stop-color="white"/>
<stop offset="1" stop-color="white" stop-opacity="0.5"/>
</radialGradient>
<linearGradient id="paint3_linear_9_850" x1="11.8893" y1="31.6428" x2="15.1496" y2="38.7108" gradientUnits="userSpaceOnUse">
<stop stop-color="white" stop-opacity="0.4"/>
<stop offset="1" stop-color="white" stop-opacity="0"/>
</linearGradient>
<radialGradient id="paint4_radial_9_850" cx="0" cy="0" r="1" gradientUnits="userSpaceOnUse" gradientTransform="translate(36.9742 26.5007) rotate(68.9532) scale(1.40323 6.5484)">
<stop stop-color="white"/>
<stop offset="1" stop-color="white" stop-opacity="0.5"/>
</radialGradient>
<linearGradient id="paint5_linear_9_850" x1="-8.15627" y1="49.8809" x2="-5.1218" y2="57.0621" gradientUnits="userSpaceOnUse">
<stop stop-color="white" stop-opacity="0.4"/>
<stop offset="1" stop-color="white" stop-opacity="0"/>
</linearGradient>
<radialGradient id="paint6_radial_9_850" cx="0" cy="0" r="1" gradientUnits="userSpaceOnUse" gradientTransform="translate(40.5018 35.6678) rotate(68.9532) scale(1.40323 13.0968)">
<stop stop-color="white"/>
<stop offset="1" stop-color="white" stop-opacity="0.5"/>
</radialGradient>
<linearGradient id="paint7_linear_9_850" x1="20.9602" y1="55.2159" x2="24.6449" y2="62.0171" gradientUnits="userSpaceOnUse">
<stop stop-color="white" stop-opacity="0.4"/>
<stop offset="1" stop-color="white" stop-opacity="0"/>
</linearGradient>
<radialGradient id="paint8_radial_9_850" cx="0" cy="0" r="1" gradientUnits="userSpaceOnUse" gradientTransform="translate(34.2586 54.6093) rotate(68.9532) scale(1.40323 3.2742)">
<stop stop-color="white"/>
<stop offset="1" stop-color="white" stop-opacity="0.5"/>
</radialGradient>
</defs>
</svg>
