<svg width="24" height="24" viewBox="0 0 24 24" fill="none" xmlns="http://www.w3.org/2000/svg">
<path d="M11 18H14" stroke="#99F3F5" stroke-width="1.5" stroke-linecap="round" stroke-linejoin="round"/>
<path d="M6.46897 18.873C6.44097 18.873 6.41897 18.895 6.41897 18.923C6.41897 18.951 6.44097 18.973 6.46897 18.973" stroke="#99F3F5" stroke-width="1.5" stroke-linecap="round" stroke-linejoin="round"/>
<path d="M19 12V5C19 3.896 18.105 3 17 3H6C4.895 3 4 3.896 4 5V10" stroke="#99F3F5" stroke-width="1.5" stroke-linecap="round" stroke-linejoin="round"/>
<path fill-rule="evenodd" clip-rule="evenodd" d="M20.5001 20H18.4091C17.5811 20 16.9091 19.328 16.9091 18.5V13.5C16.9091 12.672 17.5811 12 18.4091 12H20.5001C21.3281 12 22.0001 12.672 22.0001 13.5V18.5C22.0001 19.328 21.3281 20 20.5001 20Z" stroke="#99F3F5" stroke-width="1.5" stroke-linecap="round" stroke-linejoin="round"/>
<path d="M16.91 15H11" stroke="#99F3F5" stroke-width="1.5" stroke-linecap="round" stroke-linejoin="round"/>
<path fill-rule="evenodd" clip-rule="evenodd" d="M9 21H4C2.895 21 2 20.105 2 19V12C2 10.895 2.895 10 4 10H9C10.105 10 11 10.895 11 12V19C11 20.105 10.105 21 9 21Z" stroke="#99F3F5" stroke-width="1.5" stroke-linecap="round" stroke-linejoin="round"/>
</svg>
