<svg width="159" height="40" viewBox="0 0 159 40" fill="none" xmlns="http://www.w3.org/2000/svg">
<path d="M47.0134 12.3222H37.2916C37.0249 12.3222 36.9355 12.4116 36.9355 12.6798V27.3726C36.9355 27.6409 37.0249 27.7302 37.2916 27.7302H47.0319C47.2986 27.7302 47.3525 27.6409 47.3525 27.3726V26.568C47.3525 26.2983 47.2801 26.2089 47.0319 26.2089H38.6619V20.7152H46.6219C46.8885 20.7152 46.9779 20.6258 46.9779 20.3576V19.5514C46.9779 19.2832 46.8885 19.1938 46.6219 19.1938H38.6619V13.8435H47.0134C47.2631 13.8435 47.334 13.7541 47.334 13.4859V12.6798C47.3525 12.4116 47.2631 12.3222 47.0134 12.3222V12.3222ZM68.2727 12.3222H67.223C66.9564 12.3222 66.867 12.3946 66.867 12.6813V24.4208L56.6627 12.1973C56.5749 12.0894 56.5039 12.0355 56.3791 12.0355H56.2712C56.1124 12.0355 56.077 12.054 56.077 12.2158V13.3965L57.8034 15.5252L67.9706 27.8212C68.0939 27.9445 68.1849 28 68.2912 28H68.3991C68.5224 28 68.5764 27.9815 68.5764 27.8212V12.6613C68.6119 12.3931 68.5409 12.3222 68.2727 12.3222V12.3222ZM83.9429 19.2123C81.5382 18.9071 79.5082 18.4416 79.5082 16.6351C79.5082 15.4898 80.2388 13.6293 83.5514 13.6293C85.082 13.6293 86.5248 14.1287 87.9305 15.0782C88.0199 15.1491 88.0908 15.1676 88.1263 15.1676C88.2342 15.1676 88.3221 15.0782 88.4115 14.9164L88.8215 14.2366C88.9093 14.0208 88.9448 13.879 88.7136 13.7526C87.0581 12.7337 85.5799 12.0879 83.3371 12.0879C79.0982 12.0879 77.8172 14.9888 77.8172 16.689C77.8172 19.6054 80.5949 20.3391 82.981 20.6613C85.8481 21.0543 87.4851 21.6462 87.4851 23.4713C87.4851 25.7619 85.3841 26.4231 83.3725 26.4231C81.734 26.4231 79.9198 25.9222 78.5109 24.9557C78.4398 24.9002 78.3529 24.8688 78.2627 24.8663C78.1548 24.8663 78.0839 24.9387 77.9945 25.0821L77.586 25.7788C77.4612 26.0301 77.4612 26.138 77.6754 26.2628C79.3309 27.4266 81.2716 27.963 83.5868 27.963C87.3433 27.963 89.1591 25.7619 89.1591 23.4158C89.1776 20.464 86.7729 19.5869 83.9429 19.2123V19.2123ZM99.5406 12.3222H98.4893C98.2226 12.3222 98.1348 12.4116 98.1348 12.6798V27.3726C98.1348 27.6409 98.2226 27.7302 98.4893 27.7302H99.5406C99.8072 27.7302 99.8612 27.6409 99.8612 27.3726V12.6798C99.8781 12.4116 99.8072 12.3222 99.5406 12.3222ZM133.834 12.3222H132.783C132.516 12.3222 132.428 12.4116 132.428 12.6798V27.3726C132.428 27.6409 132.516 27.7302 132.783 27.7302H133.834C134.101 27.7302 134.155 27.6409 134.155 27.3726V12.6798C134.155 12.4116 134.082 12.3222 133.834 12.3222ZM150.873 12.037C146.565 12.037 143.04 15.6516 143.04 20.0185C143.04 24.4023 146.565 28 150.873 28C155.183 27.9985 158.708 24.3838 158.708 20.0185C158.708 15.6516 155.183 12.037 150.873 12.037ZM150.873 26.4601C147.454 26.4601 144.785 23.311 144.785 20.017C144.785 16.689 147.456 13.5753 150.873 13.5753C154.327 13.5753 156.963 16.689 156.963 20.0185C156.945 23.311 154.327 26.4617 150.875 26.4617L150.873 26.4601ZM56.0955 27.4081C56.0955 27.6408 56.1664 27.7133 56.3976 27.7133H57.27C57.5013 27.7133 57.5722 27.6408 57.5722 27.4081V17.3503L56.0939 15.5252V27.4096L56.0955 27.4081ZM109.831 27.6763H110.882C111.149 27.6763 111.238 27.6054 111.238 27.3187V15.5792L121.441 27.8027C121.531 27.9106 121.601 27.963 121.726 27.963H121.834C121.993 27.963 122.028 27.9461 122.028 27.7842V26.6035L120.302 24.4732L110.116 12.1788C109.993 12.054 109.904 12 109.796 12H109.691C109.568 12 109.514 12.0185 109.514 12.1788V27.3372C109.514 27.6239 109.584 27.6763 109.833 27.6763H109.831ZM122.028 12.5904C122.028 12.3592 121.958 12.2867 121.726 12.2867H120.854C120.623 12.2867 120.55 12.3576 120.55 12.5904V22.6482L122.03 24.4732V12.5904H122.028Z" fill="white"/>
<path opacity="0.5" d="M23.6458 32.1773C23.6458 32.1773 15.7545 30.0741 8.5939 31.2889L7.4939 26.0863C7.4939 26.0863 17.1793 25.5062 22.798 26.8842L23.6458 32.1773Z" fill="url(#paint0_linear_9_976)"/>
<path opacity="0.5" d="M24.9356 22.3702C24.9356 22.3702 14.6273 19.6237 5.26667 21.21L3.83252 14.4023C3.83252 14.4023 16.4853 13.6412 23.8263 15.4454L24.9349 22.3702H24.9356Z" fill="url(#paint1_linear_9_976)"/>
<path d="M5.11281 11.5567L21.3639 18.9617C24.1416 20.3942 24.9356 22.3702 24.9356 22.3702L24.9082 20.5746L24.8723 17.8921L24.863 17.5384C24.8083 14.1486 22.798 11.0945 19.7049 9.73456L4.77945 3.14622C0.80256 1.22336 0 0 0 0L0.0179567 1.04224L0.0452811 2.91826L0.0538685 3.79811C0.0767205 5.43747 0.564203 7.03671 1.45969 8.41007C2.35519 9.78344 3.62193 10.8746 5.11281 11.5567V11.5567Z" fill="white"/>
<path d="M7.89988 23.5849L20.8134 29.4667C23.0228 30.6089 23.6552 32.1773 23.6552 32.1773L23.6365 30.7541L23.6005 28.6236V28.3425C23.5832 27.0257 23.1883 25.7416 22.4625 24.6428C21.7368 23.5439 20.7108 22.6766 19.5066 22.1437L7.64771 16.913C4.48197 15.3907 3.8418 14.4117 3.8418 14.4117L3.85038 15.2455L3.86912 16.7319L3.87771 17.4299C3.89573 18.7315 4.28343 20.0011 4.99557 21.0908C5.70772 22.1804 6.71498 23.0452 7.89988 23.5841V23.5849Z" fill="white"/>
<path d="M10.5692 33.2384L20.3092 37.8695C21.9775 38.7673 22.446 40 22.446 40L22.428 38.8758L22.4015 37.1989V36.9725C22.3648 34.8513 21.1656 32.948 19.3083 32.0962L10.3701 27.9804C7.98035 26.7836 7.50256 26.013 7.50256 26.013L7.51115 26.6657L7.52911 27.8352L7.53848 28.3793C7.56502 30.4817 8.747 32.3765 10.5684 33.2376L10.5692 33.2384Z" fill="white"/>
<defs>
<linearGradient id="paint0_linear_9_976" x1="23.589" y1="28.9662" x2="7.53095" y2="29.2074" gradientUnits="userSpaceOnUse">
<stop stop-color="white"/>
<stop offset="1" stop-color="white"/>
</linearGradient>
<linearGradient id="paint1_linear_9_976" x1="24.8615" y1="18.1692" x2="3.88092" y2="18.4838" gradientUnits="userSpaceOnUse">
<stop stop-color="white"/>
<stop offset="1" stop-color="white"/>
</linearGradient>
</defs>
</svg>
