<svg width="44" height="44" viewBox="0 0 44 44" fill="none" xmlns="http://www.w3.org/2000/svg">
<g filter="url(#filter0_d_9_956)">
<circle opacity="0.75" cx="30" cy="18" r="10" fill="url(#paint0_linear_9_956)"/>
<g filter="url(#filter1_b_9_956)">
<path fill-rule="evenodd" clip-rule="evenodd" d="M21.4583 31.6667H8.33333C6.49167 31.6667 5 30.175 5 28.3333V8.33333C5 6.49167 6.49167 5 8.33333 5H23.3333C25.175 5 26.6667 6.49167 26.6667 8.33333" fill="url(#paint1_linear_9_956)"/>
<path fill-rule="evenodd" clip-rule="evenodd" d="M10.2084 5.00002L23.3333 5C25.175 5 26.6667 6.49167 26.6667 8.33333L26.6667 28.3334C26.6667 30.175 25.175 31.6667 23.3334 31.6667L8.33333 31.6667C6.49167 31.6667 5 30.175 5 28.3333" fill="url(#paint2_linear_9_956)"/>
<path d="M21.4583 31.6667H8.33333M8.33333 31.6667C6.49167 31.6667 5 30.175 5 28.3333V8.33333C5 6.49167 6.49167 5 8.33333 5H23.3333M8.33333 31.6667L23.3334 31.6667C25.175 31.6667 26.6667 30.175 26.6667 28.3334L26.6667 8.33333C26.6667 6.49167 25.175 5 23.3333 5M23.3333 5L10.2084 5.00002" stroke="url(#paint3_radial_9_956)" stroke-width="1.5" stroke-linecap="round"/>
</g>
<path d="M15.8317 26.3884C15.6783 26.3884 15.5533 26.5134 15.555 26.6667C15.555 26.82 15.68 26.945 15.8333 26.945C15.9867 26.945 16.1117 26.82 16.1117 26.6667C16.1117 26.5134 15.9867 26.3884 15.8317 26.3884" stroke="#5F41D9" stroke-width="1.25" stroke-linecap="round"/>
<g filter="url(#filter2_b_9_956)">
<path fill-rule="evenodd" clip-rule="evenodd" d="M24.7917 13.3334H31.6667C33.5084 13.3334 35 14.825 35 16.6667V31.6667C35 33.5084 33.5084 35 31.6667 35H24.7917C22.95 35 21.4584 33.5084 21.4584 31.6667V16.6667C21.4584 14.825 22.95 13.3334 24.7917 13.3334Z" fill="url(#paint4_linear_9_956)"/>
<path fill-rule="evenodd" clip-rule="evenodd" d="M24.7917 13.3334H31.6667C33.5084 13.3334 35 14.825 35 16.6667V31.6667C35 33.5084 33.5084 35 31.6667 35H24.7917C22.95 35 21.4584 33.5084 21.4584 31.6667V16.6667C21.4584 14.825 22.95 13.3334 24.7917 13.3334Z" stroke="url(#paint5_radial_9_956)" stroke-width="1.5" stroke-linecap="round"/>
</g>
<path d="M26.7667 31.25H29.6834" stroke="#5F41D9" stroke-width="1.25" stroke-linecap="round"/>
</g>
<defs>
<filter id="filter0_d_9_956" x="-4" y="0" width="48" height="48" filterUnits="userSpaceOnUse" color-interpolation-filters="sRGB">
<feFlood flood-opacity="0" result="BackgroundImageFix"/>
<feColorMatrix in="SourceAlpha" type="matrix" values="0 0 0 0 0 0 0 0 0 0 0 0 0 0 0 0 0 0 127 0" result="hardAlpha"/>
<feOffset dy="4"/>
<feGaussianBlur stdDeviation="2"/>
<feComposite in2="hardAlpha" operator="out"/>
<feColorMatrix type="matrix" values="0 0 0 0 0 0 0 0 0 0 0 0 0 0 0 0 0 0 0.25 0"/>
<feBlend mode="normal" in2="BackgroundImageFix" result="effect1_dropShadow_9_956"/>
<feBlend mode="normal" in="SourceGraphic" in2="effect1_dropShadow_9_956" result="shape"/>
</filter>
<filter id="filter1_b_9_956" x="-11.75" y="-11.75" width="55.1667" height="60.1667" filterUnits="userSpaceOnUse" color-interpolation-filters="sRGB">
<feFlood flood-opacity="0" result="BackgroundImageFix"/>
<feGaussianBlur in="BackgroundImageFix" stdDeviation="8"/>
<feComposite in2="SourceAlpha" operator="in" result="effect1_backgroundBlur_9_956"/>
<feBlend mode="normal" in="SourceGraphic" in2="effect1_backgroundBlur_9_956" result="shape"/>
</filter>
<filter id="filter2_b_9_956" x="4.70837" y="-3.41663" width="47.0416" height="55.1667" filterUnits="userSpaceOnUse" color-interpolation-filters="sRGB">
<feFlood flood-opacity="0" result="BackgroundImageFix"/>
<feGaussianBlur in="BackgroundImageFix" stdDeviation="8"/>
<feComposite in2="SourceAlpha" operator="in" result="effect1_backgroundBlur_9_956"/>
<feBlend mode="normal" in="SourceGraphic" in2="effect1_backgroundBlur_9_956" result="shape"/>
</filter>
<linearGradient id="paint0_linear_9_956" x1="40" y1="5.91667" x2="25.4167" y2="29.6667" gradientUnits="userSpaceOnUse">
<stop stop-color="#EC3F9D"/>
<stop offset="1" stop-color="#EC3F9D" stop-opacity="0"/>
</linearGradient>
<linearGradient id="paint1_linear_9_956" x1="-16.6667" y1="-21.6667" x2="12.2324" y2="38.5894" gradientUnits="userSpaceOnUse">
<stop stop-color="white" stop-opacity="0.4"/>
<stop offset="1" stop-color="white" stop-opacity="0"/>
</linearGradient>
<linearGradient id="paint2_linear_9_956" x1="-16.6667" y1="-21.6667" x2="12.2324" y2="38.5894" gradientUnits="userSpaceOnUse">
<stop stop-color="white" stop-opacity="0.4"/>
<stop offset="1" stop-color="white" stop-opacity="0"/>
</linearGradient>
<radialGradient id="paint3_radial_9_956" cx="0" cy="0" r="1" gradientUnits="userSpaceOnUse" gradientTransform="translate(15.8333 18.3333) rotate(90) scale(13.3333 8.42594)">
<stop stop-color="#D0C4EB"/>
<stop offset="1" stop-color="#A089D6" stop-opacity="0.5"/>
</radialGradient>
<linearGradient id="paint4_linear_9_956" x1="7.91671" y1="-8.33329" x2="34.9528" y2="35.0295" gradientUnits="userSpaceOnUse">
<stop stop-color="white" stop-opacity="0.4"/>
<stop offset="1" stop-color="white" stop-opacity="0"/>
</linearGradient>
<radialGradient id="paint5_radial_9_956" cx="0" cy="0" r="1" gradientUnits="userSpaceOnUse" gradientTransform="translate(28.2292 24.1667) rotate(90) scale(10.8333 5.2662)">
<stop stop-color="#D0C4EB"/>
<stop offset="1" stop-color="#A089D6" stop-opacity="0.5"/>
</radialGradient>
</defs>
</svg>
