<svg width="40" height="40" viewBox="0 0 40 40" fill="none" xmlns="http://www.w3.org/2000/svg">
<circle cx="10" cy="15" r="10" fill="url(#paint0_linear_9_862)"/>
<g filter="url(#filter0_b_9_862)">
<path fill-rule="evenodd" clip-rule="evenodd" d="M10 8.33333H30H10Z" fill="url(#paint1_linear_9_862)"/>
<path d="M10 8.33333H30" stroke="url(#paint2_radial_9_862)" stroke-width="1.5" stroke-linecap="round"/>
</g>
<g filter="url(#filter1_b_9_862)">
<path fill-rule="evenodd" clip-rule="evenodd" d="M13.3333 3.33333H26.6666H13.3333Z" fill="url(#paint3_linear_9_862)"/>
<path d="M13.3333 3.33333H26.6666" stroke="url(#paint4_radial_9_862)" stroke-width="1.5" stroke-linecap="round"/>
</g>
<g filter="url(#filter2_b_9_862)">
<path fill-rule="evenodd" clip-rule="evenodd" d="M33.0666 36.6667H6.93331C4.94498 36.6667 3.33331 35.055 3.33331 33.0667V16.9333C3.33331 14.945 4.94498 13.3333 6.93331 13.3333H33.0666C35.055 13.3333 36.6666 14.945 36.6666 16.9333V33.0667C36.6666 35.055 35.055 36.6667 33.0666 36.6667Z" fill="url(#paint5_linear_9_862)"/>
<path fill-rule="evenodd" clip-rule="evenodd" d="M33.0666 36.6667H6.93331C4.94498 36.6667 3.33331 35.055 3.33331 33.0667V16.9333C3.33331 14.945 4.94498 13.3333 6.93331 13.3333H33.0666C35.055 13.3333 36.6666 14.945 36.6666 16.9333V33.0667C36.6666 35.055 35.055 36.6667 33.0666 36.6667Z" stroke="url(#paint6_radial_9_862)" stroke-width="1.5" stroke-linecap="round"/>
</g>
<path fill-rule="evenodd" clip-rule="evenodd" d="M17.8867 20.1761L24.3567 24.0028C25.175 24.4861 25.175 25.6711 24.3567 26.1545L17.8867 29.9811C17.0533 30.4745 16 29.8728 16 28.9045V21.2528C16 20.2845 17.0533 19.6828 17.8867 20.1761V20.1761Z" stroke="#5F41D9" stroke-width="1.5" stroke-linecap="round" stroke-linejoin="round"/>
<defs>
<filter id="filter0_b_9_862" x="0.25" y="-1.41666" width="39.5" height="19.5" filterUnits="userSpaceOnUse" color-interpolation-filters="sRGB">
<feFlood flood-opacity="0" result="BackgroundImageFix"/>
<feGaussianBlur in="BackgroundImageFix" stdDeviation="4.5"/>
<feComposite in2="SourceAlpha" operator="in" result="effect1_backgroundBlur_9_862"/>
<feBlend mode="normal" in="SourceGraphic" in2="effect1_backgroundBlur_9_862" result="shape"/>
</filter>
<filter id="filter1_b_9_862" x="3.58331" y="-6.41666" width="32.8333" height="19.5" filterUnits="userSpaceOnUse" color-interpolation-filters="sRGB">
<feFlood flood-opacity="0" result="BackgroundImageFix"/>
<feGaussianBlur in="BackgroundImageFix" stdDeviation="4.5"/>
<feComposite in2="SourceAlpha" operator="in" result="effect1_backgroundBlur_9_862"/>
<feBlend mode="normal" in="SourceGraphic" in2="effect1_backgroundBlur_9_862" result="shape"/>
</filter>
<filter id="filter2_b_9_862" x="-6.41669" y="3.58334" width="52.8333" height="42.8333" filterUnits="userSpaceOnUse" color-interpolation-filters="sRGB">
<feFlood flood-opacity="0" result="BackgroundImageFix"/>
<feGaussianBlur in="BackgroundImageFix" stdDeviation="4.5"/>
<feComposite in2="SourceAlpha" operator="in" result="effect1_backgroundBlur_9_862"/>
<feBlend mode="normal" in="SourceGraphic" in2="effect1_backgroundBlur_9_862" result="shape"/>
</filter>
<linearGradient id="paint0_linear_9_862" x1="20" y1="23" x2="-2.5" y2="5" gradientUnits="userSpaceOnUse">
<stop stop-color="#41B5D9" stop-opacity="0"/>
<stop offset="1" stop-color="#41B5D9"/>
</linearGradient>
<linearGradient id="paint1_linear_9_862" x1="-10" y1="5.83333" x2="-9.84973" y2="10.4607" gradientUnits="userSpaceOnUse">
<stop stop-color="white" stop-opacity="0.4"/>
<stop offset="1" stop-color="white" stop-opacity="0"/>
</linearGradient>
<radialGradient id="paint2_radial_9_862" cx="0" cy="0" r="1" gradientUnits="userSpaceOnUse" gradientTransform="translate(20 8.33333) rotate(90) scale(0.833333 7.77778)">
<stop stop-color="#D0C4EB"/>
<stop offset="1" stop-color="#A089D6" stop-opacity="0.5"/>
</radialGradient>
<linearGradient id="paint3_linear_9_862" x1="-2.09808e-05" y1="0.833333" x2="0.225082" y2="5.45463" gradientUnits="userSpaceOnUse">
<stop stop-color="white" stop-opacity="0.4"/>
<stop offset="1" stop-color="white" stop-opacity="0"/>
</linearGradient>
<radialGradient id="paint4_radial_9_862" cx="0" cy="0" r="1" gradientUnits="userSpaceOnUse" gradientTransform="translate(20 3.33333) rotate(90) scale(0.833333 5.18519)">
<stop stop-color="#D0C4EB"/>
<stop offset="1" stop-color="#A089D6" stop-opacity="0.5"/>
</radialGradient>
<linearGradient id="paint5_linear_9_862" x1="-30" y1="-10" x2="-13.5352" y2="50.3605" gradientUnits="userSpaceOnUse">
<stop stop-color="white" stop-opacity="0.4"/>
<stop offset="1" stop-color="white" stop-opacity="0"/>
</linearGradient>
<radialGradient id="paint6_radial_9_862" cx="0" cy="0" r="1" gradientUnits="userSpaceOnUse" gradientTransform="translate(20 25) rotate(90) scale(11.6667 12.963)">
<stop stop-color="#D0C4EB"/>
<stop offset="1" stop-color="#A089D6" stop-opacity="0.5"/>
</radialGradient>
</defs>
</svg>
