<svg width="102" height="102" viewBox="0 0 102 102" fill="none" xmlns="http://www.w3.org/2000/svg">
<circle cx="33.2662" cy="35.2199" r="20.6241" transform="rotate(15 33.2662 35.2199)" fill="url(#paint0_linear_9_826)" fill-opacity="0.8"/>
<g filter="url(#filter0_b_9_826)">
<path fill-rule="evenodd" clip-rule="evenodd" d="M36.8248 21.939L76.6675 32.6148L36.8248 21.939Z" fill="url(#paint1_linear_9_826)" fill-opacity="0.8"/>
<path d="M36.8248 21.939L76.6675 32.6148" stroke="url(#paint2_radial_9_826)" stroke-opacity="0.8" stroke-width="1.5" stroke-linecap="round"/>
</g>
<g filter="url(#filter1_b_9_826)">
<path fill-rule="evenodd" clip-rule="evenodd" d="M46.134 13.7576L72.6958 20.8749L46.134 13.7576Z" fill="url(#paint3_linear_9_826)" fill-opacity="0.8"/>
<path d="M46.134 13.7576L72.6958 20.8749" stroke="url(#paint4_radial_9_826)" stroke-opacity="0.8" stroke-width="1.5" stroke-linecap="round"/>
</g>
<g filter="url(#filter2_b_9_826)">
<path fill-rule="evenodd" clip-rule="evenodd" d="M67.6525 90.6958L15.5913 76.746C11.6303 75.6847 9.27993 71.6137 10.3413 67.6527L18.9531 35.5129C20.0145 31.5519 24.0854 29.2015 28.0464 30.2629L80.1076 44.2126C84.0686 45.274 86.419 49.3449 85.3576 53.306L76.7458 85.4457C75.6844 89.4068 71.6135 91.7571 67.6525 90.6958Z" fill="url(#paint5_linear_9_826)" fill-opacity="0.8"/>
<path fill-rule="evenodd" clip-rule="evenodd" d="M67.6525 90.6958L15.5913 76.746C11.6303 75.6847 9.27993 71.6137 10.3413 67.6527L18.9531 35.5129C20.0145 31.5519 24.0854 29.2015 28.0464 30.2629L80.1076 44.2126C84.0686 45.274 86.419 49.3449 85.3576 53.306L76.7458 85.4457C75.6844 89.4068 71.6135 91.7571 67.6525 90.6958Z" stroke="url(#paint6_radial_9_826)" stroke-opacity="0.8" stroke-width="1.5" stroke-linecap="round"/>
</g>
<path fill-rule="evenodd" clip-rule="evenodd" d="M46.2145 49.7413L57.061 60.8182C58.4332 62.2179 57.8007 64.5785 55.9125 65.1046L40.9807 69.2742C39.0573 69.8122 37.28 68.0513 37.7969 66.1222L41.8813 50.8791C42.3982 48.95 44.8178 48.3137 46.2145 49.7413V49.7413Z" stroke="white" stroke-opacity="0.8" stroke-width="1.5" stroke-linecap="round" stroke-linejoin="round"/>
<defs>
<filter id="filter0_b_9_826" x="27.0746" y="12.1888" width="59.3431" height="30.1762" filterUnits="userSpaceOnUse" color-interpolation-filters="sRGB">
<feFlood flood-opacity="0" result="BackgroundImageFix"/>
<feGaussianBlur in="BackgroundImageFix" stdDeviation="4.5"/>
<feComposite in2="SourceAlpha" operator="in" result="effect1_backgroundBlur_9_826"/>
<feBlend mode="normal" in="SourceGraphic" in2="effect1_backgroundBlur_9_826" result="shape"/>
</filter>
<filter id="filter1_b_9_826" x="36.3838" y="4.00745" width="46.0623" height="26.6176" filterUnits="userSpaceOnUse" color-interpolation-filters="sRGB">
<feFlood flood-opacity="0" result="BackgroundImageFix"/>
<feGaussianBlur in="BackgroundImageFix" stdDeviation="4.5"/>
<feComposite in2="SourceAlpha" operator="in" result="effect1_backgroundBlur_9_826"/>
<feBlend mode="normal" in="SourceGraphic" in2="effect1_backgroundBlur_9_826" result="shape"/>
</filter>
<filter id="filter2_b_9_826" x="0.336182" y="20.2578" width="95.0265" height="80.4431" filterUnits="userSpaceOnUse" color-interpolation-filters="sRGB">
<feFlood flood-opacity="0" result="BackgroundImageFix"/>
<feGaussianBlur in="BackgroundImageFix" stdDeviation="4.5"/>
<feComposite in2="SourceAlpha" operator="in" result="effect1_backgroundBlur_9_826"/>
<feBlend mode="normal" in="SourceGraphic" in2="effect1_backgroundBlur_9_826" result="shape"/>
</filter>
<linearGradient id="paint0_linear_9_826" x1="53.8903" y1="51.7192" x2="7.48606" y2="14.5959" gradientUnits="userSpaceOnUse">
<stop stop-color="#41B5D9" stop-opacity="0"/>
<stop offset="1" stop-color="#41B5D9"/>
</linearGradient>
<linearGradient id="paint1_linear_9_826" x1="-1.68339" y1="6.28283" x2="-3.85409" y2="15.5814" gradientUnits="userSpaceOnUse">
<stop stop-color="white" stop-opacity="0.4"/>
<stop offset="1" stop-color="white" stop-opacity="0"/>
</linearGradient>
<radialGradient id="paint2_radial_9_826" cx="0" cy="0" r="1" gradientUnits="userSpaceOnUse" gradientTransform="translate(56.7462 27.2769) rotate(105) scale(1.71867 16.041)">
<stop stop-color="white"/>
<stop offset="1" stop-color="white" stop-opacity="0.5"/>
</radialGradient>
<linearGradient id="paint3_linear_9_826" x1="20.9067" y1="1.6601" x2="18.8883" y2="10.9865" gradientUnits="userSpaceOnUse">
<stop stop-color="white" stop-opacity="0.4"/>
<stop offset="1" stop-color="white" stop-opacity="0"/>
</linearGradient>
<radialGradient id="paint4_radial_9_826" cx="0" cy="0" r="1" gradientUnits="userSpaceOnUse" gradientTransform="translate(59.4149 17.3163) rotate(105) scale(1.71868 10.694)">
<stop stop-color="white"/>
<stop offset="1" stop-color="white" stop-opacity="0.5"/>
</radialGradient>
<linearGradient id="paint5_linear_9_826" x1="-33.0746" y1="-35.9349" x2="-32.4943" y2="93.1001" gradientUnits="userSpaceOnUse">
<stop stop-color="white" stop-opacity="0.4"/>
<stop offset="1" stop-color="white" stop-opacity="0"/>
</linearGradient>
<radialGradient id="paint6_radial_9_826" cx="0" cy="0" r="1" gradientUnits="userSpaceOnUse" gradientTransform="translate(47.8494 60.4793) rotate(105) scale(24.0615 26.7349)">
<stop stop-color="white"/>
<stop offset="1" stop-color="white" stop-opacity="0.5"/>
</radialGradient>
</defs>
</svg>
