<svg width="44" height="44" viewBox="0 0 44 44" fill="none" xmlns="http://www.w3.org/2000/svg">
<g filter="url(#filter0_d_9_951)">
<circle opacity="0.75" cx="14" cy="10" r="10" fill="url(#paint0_linear_9_951)"/>
<g filter="url(#filter1_b_9_951)">
<path fill-rule="evenodd" clip-rule="evenodd" d="M27.0419 31.9644C27.2294 31.7769 27.4837 31.6716 27.749 31.6716H34.0042C36.7668 31.6716 39.0063 29.432 39.0063 26.6695V9.99586C39.0063 7.23328 36.7668 4.99377 34.0042 4.99377H13.9959C11.2333 4.99377 8.99377 7.23328 8.99377 9.99586V26.6695C8.99377 29.432 11.2333 31.6716 13.9959 31.6716H20.2511C20.5163 31.6716 20.7707 31.7769 20.9582 31.9644L23.2929 34.2992C23.6834 34.6897 24.3166 34.6897 24.7071 34.2992L27.0419 31.9644Z" fill="url(#paint1_linear_9_951)"/>
<path fill-rule="evenodd" clip-rule="evenodd" d="M27.0419 31.9644C27.2294 31.7769 27.4837 31.6716 27.749 31.6716H34.0042C36.7668 31.6716 39.0063 29.432 39.0063 26.6695V9.99586C39.0063 7.23328 36.7668 4.99377 34.0042 4.99377H13.9959C11.2333 4.99377 8.99377 7.23328 8.99377 9.99586V26.6695C8.99377 29.432 11.2333 31.6716 13.9959 31.6716H20.2511C20.5163 31.6716 20.7707 31.7769 20.9582 31.9644L23.2929 34.2992C23.6834 34.6897 24.3166 34.6897 24.7071 34.2992L27.0419 31.9644Z" stroke="url(#paint2_radial_9_951)" stroke-width="1.5" stroke-linecap="round"/>
</g>
<path d="M25.7678 13.2322C26.7441 14.2086 26.7441 15.7915 25.7678 16.7678C24.7915 17.7441 23.2086 17.7441 22.2322 16.7678C21.2559 15.7915 21.2559 14.2086 22.2322 13.2322C23.2086 12.2559 24.7915 12.2559 25.7678 13.2322" stroke="#41D987" stroke-width="1.5" stroke-linecap="round" stroke-linejoin="round"/>
<g filter="url(#filter2_b_9_951)">
<path d="M18.2858 23.9286V23.2143C18.2858 21.0529 21.1086 19.6486 24.0001 19.6486C26.8915 19.6486 29.7143 21.0529 29.7143 23.2143V23.9286" stroke="url(#paint3_radial_9_951)" stroke-width="1.5" stroke-linecap="round"/>
</g>
</g>
<defs>
<filter id="filter0_d_9_951" x="0" y="0" width="48" height="48" filterUnits="userSpaceOnUse" color-interpolation-filters="sRGB">
<feFlood flood-opacity="0" result="BackgroundImageFix"/>
<feColorMatrix in="SourceAlpha" type="matrix" values="0 0 0 0 0 0 0 0 0 0 0 0 0 0 0 0 0 0 127 0" result="hardAlpha"/>
<feOffset dy="4"/>
<feGaussianBlur stdDeviation="2"/>
<feComposite in2="hardAlpha" operator="out"/>
<feColorMatrix type="matrix" values="0 0 0 0 0 0 0 0 0 0 0 0 0 0 0 0 0 0 0.25 0"/>
<feBlend mode="normal" in2="BackgroundImageFix" result="effect1_dropShadow_9_951"/>
<feBlend mode="normal" in="SourceGraphic" in2="effect1_dropShadow_9_951" result="shape"/>
</filter>
<filter id="filter1_b_9_951" x="-0.756226" y="-4.75623" width="49.5125" height="49.0983" filterUnits="userSpaceOnUse" color-interpolation-filters="sRGB">
<feFlood flood-opacity="0" result="BackgroundImageFix"/>
<feGaussianBlur in="BackgroundImageFix" stdDeviation="4.5"/>
<feComposite in2="SourceAlpha" operator="in" result="effect1_backgroundBlur_9_951"/>
<feBlend mode="normal" in="SourceGraphic" in2="effect1_backgroundBlur_9_951" result="shape"/>
</filter>
<filter id="filter2_b_9_951" x="1.53577" y="2.89862" width="44.9286" height="37.78" filterUnits="userSpaceOnUse" color-interpolation-filters="sRGB">
<feFlood flood-opacity="0" result="BackgroundImageFix"/>
<feGaussianBlur in="BackgroundImageFix" stdDeviation="8"/>
<feComposite in2="SourceAlpha" operator="in" result="effect1_backgroundBlur_9_951"/>
<feBlend mode="normal" in="SourceGraphic" in2="effect1_backgroundBlur_9_951" result="shape"/>
</filter>
<linearGradient id="paint0_linear_9_951" x1="0.25" y1="9.31322e-09" x2="14" y2="20" gradientUnits="userSpaceOnUse">
<stop stop-color="#41D987"/>
<stop offset="1" stop-color="#41D987" stop-opacity="0"/>
</linearGradient>
<linearGradient id="paint1_linear_9_951" x1="-21.0187" y1="-25.0187" x2="7.2013" y2="47.4" gradientUnits="userSpaceOnUse">
<stop stop-color="white" stop-opacity="0.4"/>
<stop offset="1" stop-color="white" stop-opacity="0"/>
</linearGradient>
<radialGradient id="paint2_radial_9_951" cx="0" cy="0" r="1" gradientUnits="userSpaceOnUse" gradientTransform="translate(24 20) rotate(90) scale(15.0063 11.6715)">
<stop stop-color="#D0C4EB"/>
<stop offset="1" stop-color="#A089D6" stop-opacity="0.5"/>
</radialGradient>
<radialGradient id="paint3_radial_9_951" cx="0" cy="0" r="1" gradientUnits="userSpaceOnUse" gradientTransform="translate(24.0001 21.7886) rotate(90) scale(2.14 4.44444)">
<stop stop-color="#D0C4EB"/>
<stop offset="1" stop-color="#A089D6" stop-opacity="0.5"/>
</radialGradient>
</defs>
</svg>
