<svg width="16" height="16" viewBox="0 0 16 16" fill="none" xmlns="http://www.w3.org/2000/svg">
<path d="M0 8.00005C0 8.97861 0.176031 9.91599 0.497594 10.7826L8 11.4783L15.5024 10.7826C15.824 9.91599 16 8.97861 16 8.00005C16 7.02148 15.824 6.08411 15.5024 5.21745L8 4.52179L0.497594 5.21745C0.176031 6.08411 0 7.02148 0 8.00005Z" fill="#FFDA44"/>
<path d="M15.5024 5.21741C14.372 2.17103 11.4397 0 7.99996 0C4.56025 0 1.6279 2.17103 0.497559 5.21741H15.5024Z" fill="#D80027"/>
<path d="M0.497559 10.7826C1.6279 13.829 4.56025 16 7.99996 16C11.4397 16 14.372 13.829 15.5024 10.7826H0.497559Z" fill="#D80027"/>
</svg>
