<svg width="40" height="40" viewBox="0 0 40 40" fill="none" xmlns="http://www.w3.org/2000/svg">
<circle cx="30" cy="30" r="10" fill="url(#paint0_linear_9_868)"/>
<g filter="url(#filter0_b_9_868)">
<path fill-rule="evenodd" clip-rule="evenodd" d="M26.6667 5H8.33333C6.49167 5 5 6.49167 5 8.33333V25" fill="url(#paint1_linear_9_868)"/>
<path d="M26.6667 5H8.33333C6.49167 5 5 6.49167 5 8.33333V25" stroke="url(#paint2_radial_9_868)" stroke-width="1.5" stroke-linecap="round"/>
</g>
<g filter="url(#filter1_b_9_868)">
<path fill-rule="evenodd" clip-rule="evenodd" d="M32.4066 35H14.26C12.8266 35 11.6666 33.84 11.6666 32.4067V14.26C11.6666 12.8267 12.8266 11.6667 14.26 11.6667H32.4083C33.84 11.6667 35 12.8267 35 14.26V32.4083C35 33.84 33.84 35 32.4066 35Z" fill="url(#paint3_linear_9_868)"/>
<path fill-rule="evenodd" clip-rule="evenodd" d="M32.4066 35H14.26C12.8266 35 11.6666 33.84 11.6666 32.4067V14.26C11.6666 12.8267 12.8266 11.6667 14.26 11.6667H32.4083C33.84 11.6667 35 12.8267 35 14.26V32.4083C35 33.84 33.84 35 32.4066 35Z" stroke="url(#paint4_radial_9_868)" stroke-width="1.5" stroke-linecap="round"/>
</g>
<g filter="url(#filter2_b_9_868)">
<path fill-rule="evenodd" clip-rule="evenodd" d="M29.8167 18.15H22.0333H29.8167Z" fill="url(#paint5_linear_9_868)"/>
<path d="M29.8167 18.15H22.0333" stroke="#5F41D9" stroke-width="1.5" stroke-linecap="round"/>
</g>
<g filter="url(#filter3_b_9_868)">
<path fill-rule="evenodd" clip-rule="evenodd" d="M22.0333 23.3333H29.8167H22.0333Z" fill="url(#paint6_linear_9_868)"/>
<path d="M22.0333 23.3333H29.8167" stroke="#5F41D9" stroke-width="1.5" stroke-linecap="round"/>
</g>
<g filter="url(#filter4_b_9_868)">
<path fill-rule="evenodd" clip-rule="evenodd" d="M22.0333 28.5167H29.8167H22.0333Z" fill="url(#paint7_linear_9_868)"/>
<path d="M22.0333 28.5167H29.8167" stroke="url(#paint8_radial_9_868)" stroke-width="1.5" stroke-linecap="round"/>
</g>
<g filter="url(#filter5_b_9_868)">
<path fill-rule="evenodd" clip-rule="evenodd" d="M16.8501 28.195C16.6717 28.195 16.5267 28.34 16.5267 28.5183C16.5267 28.6967 16.6717 28.8417 16.8501 28.8417C17.0284 28.8417 17.1734 28.6967 17.1734 28.5183C17.1734 28.34 17.0301 28.195 16.8501 28.195Z" fill="url(#paint9_linear_9_868)"/>
<path d="M16.8501 28.195C16.6717 28.195 16.5267 28.34 16.5267 28.5183C16.5267 28.6967 16.6717 28.8417 16.8501 28.8417C17.0284 28.8417 17.1734 28.6967 17.1734 28.5183C17.1734 28.34 17.0301 28.195 16.8501 28.195" stroke="url(#paint10_radial_9_868)" stroke-width="1.5" stroke-linecap="round"/>
</g>
<g filter="url(#filter6_b_9_868)">
<path fill-rule="evenodd" clip-rule="evenodd" d="M16.8501 23.01C16.6717 23.01 16.5267 23.155 16.5267 23.3333C16.5267 23.5117 16.6717 23.6567 16.8501 23.6567C17.0284 23.6567 17.1734 23.5117 17.1734 23.3333C17.1734 23.155 17.0301 23.01 16.8501 23.01Z" fill="url(#paint11_linear_9_868)"/>
<path d="M16.8501 23.01C16.6717 23.01 16.5267 23.155 16.5267 23.3333C16.5267 23.5117 16.6717 23.6567 16.8501 23.6567C17.0284 23.6567 17.1734 23.5117 17.1734 23.3333C17.1734 23.155 17.0301 23.01 16.8501 23.01" stroke="#5F41D9" stroke-width="1.5" stroke-linecap="round"/>
</g>
<g filter="url(#filter7_b_9_868)">
<path fill-rule="evenodd" clip-rule="evenodd" d="M16.85 17.8233C16.6717 17.8233 16.5267 17.9683 16.5267 18.1467C16.5267 18.325 16.6717 18.47 16.85 18.47C17.0284 18.47 17.1734 18.325 17.1734 18.1467C17.1767 17.97 17.03 17.8233 16.85 17.8233Z" fill="url(#paint12_linear_9_868)"/>
<path d="M16.85 17.8233C16.6717 17.8233 16.5267 17.9683 16.5267 18.1467C16.5267 18.325 16.6717 18.47 16.85 18.47C17.0284 18.47 17.1734 18.325 17.1734 18.1467C17.1767 17.97 17.03 17.8233 16.85 17.8233" stroke="#5F41D9" stroke-width="1.5" stroke-linecap="round"/>
</g>
<defs>
<filter id="filter0_b_9_868" x="-4.75" y="-4.75" width="41.1666" height="39.5" filterUnits="userSpaceOnUse" color-interpolation-filters="sRGB">
<feFlood flood-opacity="0" result="BackgroundImageFix"/>
<feGaussianBlur in="BackgroundImageFix" stdDeviation="4.5"/>
<feComposite in2="SourceAlpha" operator="in" result="effect1_backgroundBlur_9_868"/>
<feBlend mode="normal" in="SourceGraphic" in2="effect1_backgroundBlur_9_868" result="shape"/>
</filter>
<filter id="filter1_b_9_868" x="1.91663" y="1.91666" width="42.8334" height="42.8333" filterUnits="userSpaceOnUse" color-interpolation-filters="sRGB">
<feFlood flood-opacity="0" result="BackgroundImageFix"/>
<feGaussianBlur in="BackgroundImageFix" stdDeviation="4.5"/>
<feComposite in2="SourceAlpha" operator="in" result="effect1_backgroundBlur_9_868"/>
<feBlend mode="normal" in="SourceGraphic" in2="effect1_backgroundBlur_9_868" result="shape"/>
</filter>
<filter id="filter2_b_9_868" x="12.2833" y="8.4" width="27.2833" height="19.5" filterUnits="userSpaceOnUse" color-interpolation-filters="sRGB">
<feFlood flood-opacity="0" result="BackgroundImageFix"/>
<feGaussianBlur in="BackgroundImageFix" stdDeviation="4.5"/>
<feComposite in2="SourceAlpha" operator="in" result="effect1_backgroundBlur_9_868"/>
<feBlend mode="normal" in="SourceGraphic" in2="effect1_backgroundBlur_9_868" result="shape"/>
</filter>
<filter id="filter3_b_9_868" x="12.2833" y="13.5833" width="27.2833" height="19.5" filterUnits="userSpaceOnUse" color-interpolation-filters="sRGB">
<feFlood flood-opacity="0" result="BackgroundImageFix"/>
<feGaussianBlur in="BackgroundImageFix" stdDeviation="4.5"/>
<feComposite in2="SourceAlpha" operator="in" result="effect1_backgroundBlur_9_868"/>
<feBlend mode="normal" in="SourceGraphic" in2="effect1_backgroundBlur_9_868" result="shape"/>
</filter>
<filter id="filter4_b_9_868" x="12.2833" y="18.7667" width="27.2833" height="19.5" filterUnits="userSpaceOnUse" color-interpolation-filters="sRGB">
<feFlood flood-opacity="0" result="BackgroundImageFix"/>
<feGaussianBlur in="BackgroundImageFix" stdDeviation="4.5"/>
<feComposite in2="SourceAlpha" operator="in" result="effect1_backgroundBlur_9_868"/>
<feBlend mode="normal" in="SourceGraphic" in2="effect1_backgroundBlur_9_868" result="shape"/>
</filter>
<filter id="filter5_b_9_868" x="6.77673" y="18.445" width="20.1466" height="20.1467" filterUnits="userSpaceOnUse" color-interpolation-filters="sRGB">
<feFlood flood-opacity="0" result="BackgroundImageFix"/>
<feGaussianBlur in="BackgroundImageFix" stdDeviation="4.5"/>
<feComposite in2="SourceAlpha" operator="in" result="effect1_backgroundBlur_9_868"/>
<feBlend mode="normal" in="SourceGraphic" in2="effect1_backgroundBlur_9_868" result="shape"/>
</filter>
<filter id="filter6_b_9_868" x="6.77673" y="13.26" width="20.1466" height="20.1467" filterUnits="userSpaceOnUse" color-interpolation-filters="sRGB">
<feFlood flood-opacity="0" result="BackgroundImageFix"/>
<feGaussianBlur in="BackgroundImageFix" stdDeviation="4.5"/>
<feComposite in2="SourceAlpha" operator="in" result="effect1_backgroundBlur_9_868"/>
<feBlend mode="normal" in="SourceGraphic" in2="effect1_backgroundBlur_9_868" result="shape"/>
</filter>
<filter id="filter7_b_9_868" x="6.77673" y="8.07333" width="20.1467" height="20.1467" filterUnits="userSpaceOnUse" color-interpolation-filters="sRGB">
<feFlood flood-opacity="0" result="BackgroundImageFix"/>
<feGaussianBlur in="BackgroundImageFix" stdDeviation="4.5"/>
<feComposite in2="SourceAlpha" operator="in" result="effect1_backgroundBlur_9_868"/>
<feBlend mode="normal" in="SourceGraphic" in2="effect1_backgroundBlur_9_868" result="shape"/>
</filter>
<linearGradient id="paint0_linear_9_868" x1="14.5" y1="30" x2="36.5" y2="50" gradientUnits="userSpaceOnUse">
<stop stop-color="#41B5D9" stop-opacity="0"/>
<stop offset="1" stop-color="#41B5D9"/>
</linearGradient>
<linearGradient id="paint1_linear_9_868" x1="-16.6667" y1="-15" x2="1.03753" y2="34.2189" gradientUnits="userSpaceOnUse">
<stop stop-color="white" stop-opacity="0.4"/>
<stop offset="1" stop-color="white" stop-opacity="0"/>
</linearGradient>
<radialGradient id="paint2_radial_9_868" cx="0" cy="0" r="1" gradientUnits="userSpaceOnUse" gradientTransform="translate(15.8333 15) rotate(90) scale(10 8.42593)">
<stop stop-color="#D0C4EB"/>
<stop offset="1" stop-color="#A089D6" stop-opacity="0.5"/>
</radialGradient>
<linearGradient id="paint3_linear_9_868" x1="-11.6667" y1="-11.6667" x2="10.2731" y2="44.6355" gradientUnits="userSpaceOnUse">
<stop stop-color="white" stop-opacity="0.4"/>
<stop offset="1" stop-color="white" stop-opacity="0"/>
</linearGradient>
<radialGradient id="paint4_radial_9_868" cx="0" cy="0" r="1" gradientUnits="userSpaceOnUse" gradientTransform="translate(23.3333 23.3333) rotate(90) scale(11.6667 9.07407)">
<stop stop-color="#D0C4EB"/>
<stop offset="1" stop-color="#A089D6" stop-opacity="0.5"/>
</radialGradient>
<linearGradient id="paint5_linear_9_868" x1="14.25" y1="15.65" x2="14.6338" y2="20.2502" gradientUnits="userSpaceOnUse">
<stop stop-color="white" stop-opacity="0.4"/>
<stop offset="1" stop-color="white" stop-opacity="0"/>
</linearGradient>
<linearGradient id="paint6_linear_9_868" x1="14.25" y1="20.8333" x2="14.6338" y2="25.4336" gradientUnits="userSpaceOnUse">
<stop stop-color="white" stop-opacity="0.4"/>
<stop offset="1" stop-color="white" stop-opacity="0"/>
</linearGradient>
<linearGradient id="paint7_linear_9_868" x1="14.25" y1="26.0167" x2="14.6338" y2="30.6169" gradientUnits="userSpaceOnUse">
<stop stop-color="white" stop-opacity="0.4"/>
<stop offset="1" stop-color="white" stop-opacity="0"/>
</linearGradient>
<radialGradient id="paint8_radial_9_868" cx="0" cy="0" r="1" gradientUnits="userSpaceOnUse" gradientTransform="translate(25.925 28.5167) rotate(90) scale(0.833334 3.02685)">
<stop stop-color="#D0C4EB"/>
<stop offset="1" stop-color="#A089D6" stop-opacity="0.5"/>
</radialGradient>
<linearGradient id="paint9_linear_9_868" x1="14.3501" y1="26.0183" x2="15.9172" y2="30.0399" gradientUnits="userSpaceOnUse">
<stop stop-color="white" stop-opacity="0.4"/>
<stop offset="1" stop-color="white" stop-opacity="0"/>
</linearGradient>
<radialGradient id="paint10_radial_9_868" cx="0" cy="0" r="1" gradientUnits="userSpaceOnUse" gradientTransform="translate(16.8501 28.5183) rotate(90) scale(0.833332 0.648148)">
<stop stop-color="#D0C4EB"/>
<stop offset="1" stop-color="#A089D6" stop-opacity="0.5"/>
</radialGradient>
<linearGradient id="paint11_linear_9_868" x1="14.3501" y1="20.8333" x2="15.9172" y2="24.8549" gradientUnits="userSpaceOnUse">
<stop stop-color="white" stop-opacity="0.4"/>
<stop offset="1" stop-color="white" stop-opacity="0"/>
</linearGradient>
<linearGradient id="paint12_linear_9_868" x1="14.3501" y1="15.6467" x2="15.9172" y2="19.6683" gradientUnits="userSpaceOnUse">
<stop stop-color="white" stop-opacity="0.4"/>
<stop offset="1" stop-color="white" stop-opacity="0"/>
</linearGradient>
</defs>
</svg>
